<svg xmlns="http://www.w3.org/2000/svg" xmlns:xlink="http://www.w3.org/1999/xlink" width="4000" zoomAndPan="magnify" viewBox="0 0 3000 809.999993" height="1080" preserveAspectRatio="xMidYMid meet" version="1.0"><defs><filter x="0%" y="0%" width="100%" height="100%" id="eed85bc2e0"><feColorMatrix values="0 0 0 0 1 0 0 0 0 1 0 0 0 0 1 0 0 0 1 0" color-interpolation-filters="sRGB"/></filter><g/><clipPath id="c6b69c78a3"><path d="M 150 68.902344 L 945.746094 68.902344 L 945.746094 740.902344 L 150 740.902344 Z M 150 68.902344 " clip-rule="nonzero"/></clipPath><clipPath id="32d81bf5a5"><path d="M 2.097656 0 L 2020.199219 0 L 2020.199219 810 L 2.097656 810 Z M 2.097656 0 " clip-rule="nonzero"/></clipPath><clipPath id="34a3796f99"><path d="M 0.0976562 0 L 2018.199219 0 L 2018.199219 810 L 0.0976562 810 Z M 0.0976562 0 " clip-rule="nonzero"/></clipPath><clipPath id="0571a44751"><path d="M 0.0976562 0 L 2018.199219 0 L 2018.199219 810 L 0.0976562 810 Z M 0.0976562 0 " clip-rule="nonzero"/></clipPath><clipPath id="c2e41994b5"><rect x="0" width="2019" y="0" height="810"/></clipPath><clipPath id="f83fc04a82"><rect x="0" width="2019" y="0" height="810"/></clipPath><mask id="591ed412b5"><g filter="url(#eed85bc2e0)"><g transform="matrix(1, 0, 0, 1, 0, 0.000000000000039746)"><g clip-path="url(#f83fc04a82)"><g clip-path="url(#0571a44751)"><g transform="matrix(1, 0, 0, 1, 0, 0.000000000000039746)"><g clip-path="url(#c2e41994b5)"><g fill="#000000" fill-opacity="1"><g transform="translate(734.45681, 687.397925)"><g><path d="M 241.09375 -85.640625 C 241.09375 -73.878906 238.582031 -62.664062 233.5625 -52 C 228.539062 -41.34375 221.738281 -31.972656 213.15625 -23.890625 C 204.582031 -15.804688 194.722656 -9.3125 183.578125 -4.40625 C 172.429688 0.488281 160.609375 2.9375 148.109375 2.9375 C 131.941406 2.9375 117.851562 0.425781 105.84375 -4.59375 C 93.84375 -9.613281 83.550781 -17.148438 74.96875 -27.203125 L 74.96875 53.296875 L 33.078125 53.296875 L 33.078125 -172 L 62.484375 -172 L 69.46875 -133.78125 C 72.40625 -139.90625 76.566406 -145.601562 81.953125 -150.875 C 87.347656 -156.144531 93.597656 -160.738281 100.703125 -164.65625 C 107.804688 -168.570312 115.582031 -171.691406 124.03125 -174.015625 C 132.488281 -176.347656 141.128906 -177.515625 149.953125 -177.515625 C 163.429688 -177.515625 175.742188 -175.125 186.890625 -170.34375 C 198.035156 -165.570312 207.648438 -159.140625 215.734375 -151.046875 C 223.828125 -142.960938 230.078125 -133.59375 234.484375 -122.9375 C 238.890625 -112.28125 241.09375 -100.945312 241.09375 -88.9375 Z M 197.359375 -90.046875 C 197.359375 -107.191406 191.96875 -121.09375 181.1875 -131.75 C 170.40625 -142.414062 156.070312 -147.75 138.1875 -147.75 C 129.363281 -147.75 121.273438 -146.273438 113.921875 -143.328125 C 106.578125 -140.390625 100.148438 -136.285156 94.640625 -131.015625 C 89.128906 -125.753906 84.84375 -119.328125 81.78125 -111.734375 C 78.71875 -104.140625 77.1875 -95.804688 77.1875 -86.734375 L 77.1875 -83.0625 C 77.1875 -73.75 79.019531 -65.597656 82.6875 -58.609375 C 86.363281 -51.628906 91.082031 -45.8125 96.84375 -41.15625 C 102.601562 -36.507812 109.097656 -32.957031 116.328125 -30.5 C 123.554688 -28.050781 130.84375 -26.828125 138.1875 -26.828125 C 156.070312 -26.828125 170.40625 -31.972656 181.1875 -42.265625 C 191.96875 -52.554688 197.359375 -66.644531 197.359375 -84.53125 Z M 197.359375 -90.046875 "/></g></g></g><g fill="#000000" fill-opacity="1"><g transform="translate(950.556177, 687.397925)"><g><path d="M 158.40625 -135.625 C 144.6875 -138.070312 132.738281 -138.742188 122.5625 -137.640625 C 112.394531 -136.535156 103.878906 -134.144531 97.015625 -130.46875 C 90.160156 -126.789062 85.078125 -122.070312 81.765625 -116.3125 C 78.460938 -110.5625 76.8125 -104.378906 76.8125 -97.765625 L 76.8125 0 L 33.078125 0 L 33.078125 -172 L 73.140625 -172 L 73.140625 -127.53125 C 77.546875 -137.082031 82.257812 -144.984375 87.28125 -151.234375 C 92.3125 -157.484375 98.132812 -162.320312 104.75 -165.75 C 111.363281 -169.1875 119.019531 -171.453125 127.71875 -172.546875 C 136.414062 -173.648438 146.644531 -173.835938 158.40625 -173.109375 Z M 158.40625 -135.625 "/></g></g></g><g fill="#000000" fill-opacity="1"><g transform="translate(1075.143201, 687.397925)"><g><path d="M 232.640625 -84.53125 C 232.640625 -71.539062 229.695312 -59.65625 223.8125 -48.875 C 217.9375 -38.09375 210.035156 -28.84375 200.109375 -21.125 C 190.191406 -13.414062 178.800781 -7.476562 165.9375 -3.3125 C 153.070312 0.851562 139.660156 2.9375 125.703125 2.9375 C 111.734375 2.9375 98.316406 0.851562 85.453125 -3.3125 C 72.585938 -7.476562 61.191406 -13.414062 51.265625 -21.125 C 41.347656 -28.84375 33.445312 -38.09375 27.5625 -48.875 C 21.6875 -59.65625 18.75 -71.539062 18.75 -84.53125 L 18.75 -90.046875 C 18.75 -103.035156 21.6875 -114.914062 27.5625 -125.6875 C 33.445312 -136.46875 41.347656 -145.71875 51.265625 -153.4375 C 61.191406 -161.15625 72.585938 -167.097656 85.453125 -171.265625 C 98.316406 -175.429688 111.734375 -177.515625 125.703125 -177.515625 C 139.660156 -177.515625 153.070312 -175.429688 165.9375 -171.265625 C 178.800781 -167.097656 190.191406 -161.15625 200.109375 -153.4375 C 210.035156 -145.71875 217.9375 -136.46875 223.8125 -125.6875 C 229.695312 -114.914062 232.640625 -103.035156 232.640625 -90.046875 Z M 188.90625 -88.9375 C 188.90625 -97.03125 187.492188 -104.6875 184.671875 -111.90625 C 181.859375 -119.132812 177.695312 -125.382812 172.1875 -130.65625 C 166.675781 -135.925781 160 -140.09375 152.15625 -143.15625 C 144.3125 -146.21875 135.492188 -147.75 125.703125 -147.75 C 115.648438 -147.75 106.703125 -146.21875 98.859375 -143.15625 C 91.023438 -140.09375 84.410156 -135.925781 79.015625 -130.65625 C 73.628906 -125.382812 69.523438 -119.132812 66.703125 -111.90625 C 63.890625 -104.6875 62.484375 -97.03125 62.484375 -88.9375 L 62.484375 -85.640625 C 62.484375 -77.546875 63.890625 -69.882812 66.703125 -62.65625 C 69.523438 -55.4375 73.628906 -49.191406 79.015625 -43.921875 C 84.410156 -38.648438 91.023438 -34.484375 98.859375 -31.421875 C 106.703125 -28.359375 115.648438 -26.828125 125.703125 -26.828125 C 135.492188 -26.828125 144.3125 -28.359375 152.15625 -31.421875 C 160 -34.484375 166.675781 -38.648438 172.1875 -43.921875 C 177.695312 -49.191406 181.859375 -55.4375 184.671875 -62.65625 C 187.492188 -69.882812 188.90625 -77.546875 188.90625 -85.640625 Z M 188.90625 -88.9375 "/></g></g></g></g></g></g></g></g></g></mask><clipPath id="ed291eba38"><path d="M 0.101562 0 L 2018.199219 0 L 2018.199219 810 L 0.101562 810 Z M 0.101562 0 " clip-rule="nonzero"/></clipPath><linearGradient x1="-421.41" gradientTransform="matrix(1.743909, 0, 0, 1.744488, 735.000612, 301.011538)" y1="146.5" x2="735.81705" gradientUnits="userSpaceOnUse" y2="146.5" id="98dc0d7464"><stop stop-opacity="1" stop-color="rgb(0%, 29.019165%, 67.83905%)" offset="0"/><stop stop-opacity="1" stop-color="rgb(0%, 29.019165%, 67.83905%)" offset="0.25"/><stop stop-opacity="1" stop-color="rgb(0%, 29.019165%, 67.83905%)" offset="0.3125"/><stop stop-opacity="1" stop-color="rgb(0%, 29.019165%, 67.83905%)" offset="0.34375"/><stop stop-opacity="1" stop-color="rgb(0%, 29.019165%, 67.83905%)" offset="0.359375"/><stop stop-opacity="1" stop-color="rgb(0.440979%, 29.092407%, 67.962646%)" offset="0.363281"/><stop stop-opacity="1" stop-color="rgb(0.883484%, 29.167175%, 68.087769%)" offset="0.367188"/><stop stop-opacity="1" stop-color="rgb(2.027893%, 29.35791%, 68.408203%)" offset="0.371094"/><stop stop-opacity="1" stop-color="rgb(3.173828%, 29.550171%, 68.730164%)" offset="0.375"/><stop stop-opacity="1" stop-color="rgb(4.318237%, 29.742432%, 69.052124%)" offset="0.378906"/><stop stop-opacity="1" stop-color="rgb(5.462646%, 29.934692%, 69.374084%)" offset="0.382812"/><stop stop-opacity="1" stop-color="rgb(6.607056%, 30.125427%, 69.694519%)" offset="0.386719"/><stop stop-opacity="1" stop-color="rgb(7.751465%, 30.317688%, 70.016479%)" offset="0.390625"/><stop stop-opacity="1" stop-color="rgb(8.895874%, 30.508423%, 70.33844%)" offset="0.394531"/><stop stop-opacity="1" stop-color="rgb(10.041809%, 30.700684%, 70.6604%)" offset="0.398438"/><stop stop-opacity="1" stop-color="rgb(11.186218%, 30.891418%, 70.980835%)" offset="0.402344"/><stop stop-opacity="1" stop-color="rgb(12.330627%, 31.083679%, 71.302795%)" offset="0.40625"/><stop stop-opacity="1" stop-color="rgb(13.475037%, 31.274414%, 71.62323%)" offset="0.410156"/><stop stop-opacity="1" stop-color="rgb(14.620972%, 31.466675%, 71.94519%)" offset="0.414062"/><stop stop-opacity="1" stop-color="rgb(15.765381%, 31.658936%, 72.267151%)" offset="0.417969"/><stop stop-opacity="1" stop-color="rgb(16.90979%, 31.851196%, 72.589111%)" offset="0.421875"/><stop stop-opacity="1" stop-color="rgb(18.054199%, 32.041931%, 72.909546%)" offset="0.425781"/><stop stop-opacity="1" stop-color="rgb(19.198608%, 32.234192%, 73.231506%)" offset="0.429688"/><stop stop-opacity="1" stop-color="rgb(20.343018%, 32.424927%, 73.553467%)" offset="0.433594"/><stop stop-opacity="1" stop-color="rgb(21.488953%, 32.617188%, 73.875427%)" offset="0.4375"/><stop stop-opacity="1" stop-color="rgb(22.633362%, 32.807922%, 74.195862%)" offset="0.441406"/><stop stop-opacity="1" stop-color="rgb(23.777771%, 33.000183%, 74.517822%)" offset="0.445312"/><stop stop-opacity="1" stop-color="rgb(24.92218%, 33.192444%, 74.839783%)" offset="0.449219"/><stop stop-opacity="1" stop-color="rgb(26.068115%, 33.384705%, 75.161743%)" offset="0.453125"/><stop stop-opacity="1" stop-color="rgb(27.212524%, 33.575439%, 75.482178%)" offset="0.457031"/><stop stop-opacity="1" stop-color="rgb(28.356934%, 33.7677%, 75.804138%)" offset="0.460938"/><stop stop-opacity="1" stop-color="rgb(29.501343%, 33.958435%, 76.124573%)" offset="0.464844"/><stop stop-opacity="1" stop-color="rgb(30.645752%, 34.150696%, 76.446533%)" offset="0.46875"/><stop stop-opacity="1" stop-color="rgb(31.790161%, 34.341431%, 76.768494%)" offset="0.472656"/><stop stop-opacity="1" stop-color="rgb(32.936096%, 34.533691%, 77.090454%)" offset="0.476563"/><stop stop-opacity="1" stop-color="rgb(34.080505%, 34.725952%, 77.410889%)" offset="0.480469"/><stop stop-opacity="1" stop-color="rgb(35.224915%, 34.918213%, 77.732849%)" offset="0.484375"/><stop stop-opacity="1" stop-color="rgb(36.369324%, 35.108948%, 78.05481%)" offset="0.488281"/><stop stop-opacity="1" stop-color="rgb(37.515259%, 35.301208%, 78.37677%)" offset="0.492188"/><stop stop-opacity="1" stop-color="rgb(38.659668%, 35.491943%, 78.697205%)" offset="0.496094"/><stop stop-opacity="1" stop-color="rgb(39.804077%, 35.684204%, 79.019165%)" offset="0.5"/><stop stop-opacity="1" stop-color="rgb(40.948486%, 35.874939%, 79.3396%)" offset="0.503906"/><stop stop-opacity="1" stop-color="rgb(42.094421%, 36.0672%, 79.66156%)" offset="0.507812"/><stop stop-opacity="1" stop-color="rgb(43.238831%, 36.257935%, 79.983521%)" offset="0.511719"/><stop stop-opacity="1" stop-color="rgb(44.38324%, 36.450195%, 80.305481%)" offset="0.515625"/><stop stop-opacity="1" stop-color="rgb(45.527649%, 36.642456%, 80.625916%)" offset="0.519531"/><stop stop-opacity="1" stop-color="rgb(46.672058%, 36.834717%, 80.947876%)" offset="0.523438"/><stop stop-opacity="1" stop-color="rgb(47.816467%, 37.025452%, 81.269836%)" offset="0.527344"/><stop stop-opacity="1" stop-color="rgb(48.962402%, 37.217712%, 81.591797%)" offset="0.53125"/><stop stop-opacity="1" stop-color="rgb(50.106812%, 37.408447%, 81.912231%)" offset="0.535156"/><stop stop-opacity="1" stop-color="rgb(51.251221%, 37.600708%, 82.234192%)" offset="0.539062"/><stop stop-opacity="1" stop-color="rgb(52.39563%, 37.791443%, 82.556152%)" offset="0.542969"/><stop stop-opacity="1" stop-color="rgb(53.541565%, 37.983704%, 82.878113%)" offset="0.546875"/><stop stop-opacity="1" stop-color="rgb(54.685974%, 38.175964%, 83.198547%)" offset="0.550781"/><stop stop-opacity="1" stop-color="rgb(55.830383%, 38.368225%, 83.520508%)" offset="0.554687"/><stop stop-opacity="1" stop-color="rgb(56.974792%, 38.55896%, 83.840942%)" offset="0.558594"/><stop stop-opacity="1" stop-color="rgb(58.119202%, 38.751221%, 84.162903%)" offset="0.5625"/><stop stop-opacity="1" stop-color="rgb(59.263611%, 38.941956%, 84.484863%)" offset="0.566406"/><stop stop-opacity="1" stop-color="rgb(60.409546%, 39.134216%, 84.806824%)" offset="0.570312"/><stop stop-opacity="1" stop-color="rgb(61.553955%, 39.324951%, 85.127258%)" offset="0.574219"/><stop stop-opacity="1" stop-color="rgb(62.698364%, 39.517212%, 85.449219%)" offset="0.578125"/><stop stop-opacity="1" stop-color="rgb(63.842773%, 39.709473%, 85.771179%)" offset="0.582031"/><stop stop-opacity="1" stop-color="rgb(64.988708%, 39.901733%, 86.09314%)" offset="0.585938"/><stop stop-opacity="1" stop-color="rgb(66.133118%, 40.092468%, 86.413574%)" offset="0.589844"/><stop stop-opacity="1" stop-color="rgb(67.277527%, 40.284729%, 86.735535%)" offset="0.59375"/><stop stop-opacity="1" stop-color="rgb(68.421936%, 40.475464%, 87.055969%)" offset="0.597656"/><stop stop-opacity="1" stop-color="rgb(69.566345%, 40.667725%, 87.37793%)" offset="0.601562"/><stop stop-opacity="1" stop-color="rgb(70.710754%, 40.858459%, 87.69989%)" offset="0.605469"/><stop stop-opacity="1" stop-color="rgb(71.856689%, 41.05072%, 88.021851%)" offset="0.609375"/><stop stop-opacity="1" stop-color="rgb(73.001099%, 41.241455%, 88.342285%)" offset="0.613281"/><stop stop-opacity="1" stop-color="rgb(74.145508%, 41.433716%, 88.664246%)" offset="0.617188"/><stop stop-opacity="1" stop-color="rgb(75.289917%, 41.625977%, 88.986206%)" offset="0.621094"/><stop stop-opacity="1" stop-color="rgb(76.435852%, 41.818237%, 89.308167%)" offset="0.625"/><stop stop-opacity="1" stop-color="rgb(77.580261%, 42.008972%, 89.628601%)" offset="0.628906"/><stop stop-opacity="1" stop-color="rgb(78.72467%, 42.201233%, 89.950562%)" offset="0.632812"/><stop stop-opacity="1" stop-color="rgb(79.167175%, 42.274475%, 90.074158%)" offset="0.636719"/><stop stop-opacity="1" stop-color="rgb(79.60968%, 42.349243%, 90.19928%)" offset="0.640625"/><stop stop-opacity="1" stop-color="rgb(79.60968%, 42.349243%, 90.19928%)" offset="0.65625"/><stop stop-opacity="1" stop-color="rgb(79.60968%, 42.349243%, 90.19928%)" offset="0.6875"/><stop stop-opacity="1" stop-color="rgb(79.60968%, 42.349243%, 90.19928%)" offset="0.75"/><stop stop-opacity="1" stop-color="rgb(79.60968%, 42.349243%, 90.19928%)" offset="1"/></linearGradient><clipPath id="d08cf98bcb"><rect x="0" width="2019" y="0" height="810"/></clipPath><clipPath id="a9149feb8a"><rect x="0" width="2019" y="0" height="810"/></clipPath><clipPath id="287e7d377e"><rect x="0" width="2021" y="0" height="810"/></clipPath></defs><g clip-path="url(#c6b69c78a3)"><path fill="#ffffff" d="M 429.839844 448.148438 L 429.839844 649.382812 C 429.839844 659.703125 421.472656 668.085938 411.132812 668.085938 C 400.808594 668.085938 392.429688 659.71875 392.429688 649.382812 L 392.429688 448.148438 C 392.429688 437.828125 400.796875 429.445312 411.132812 429.445312 C 421.457031 429.445312 429.839844 437.8125 429.839844 448.148438 Z M 752.730469 475.050781 C 742.40625 475.050781 734.023438 483.417969 734.023438 493.757812 L 734.023438 603.773438 C 734.023438 614.097656 742.390625 622.480469 752.730469 622.480469 C 763.066406 622.480469 771.433594 614.113281 771.433594 603.773438 L 771.433594 493.757812 C 771.433594 483.417969 763.054688 475.050781 752.730469 475.050781 Z M 479.457031 455.992188 C 469.132812 455.992188 460.753906 464.359375 460.753906 474.699219 L 460.753906 622.820312 C 460.753906 633.144531 469.121094 641.523438 479.457031 641.523438 C 489.796875 641.523438 498.164062 633.15625 498.164062 622.820312 L 498.164062 474.699219 C 498.148438 464.375 489.78125 455.992188 479.457031 455.992188 Z M 342.808594 475.050781 C 332.484375 475.050781 324.101562 483.417969 324.101562 493.757812 L 324.101562 603.773438 C 324.101562 614.097656 332.46875 622.480469 342.808594 622.480469 C 353.132812 622.480469 361.511719 614.113281 361.511719 603.773438 L 361.511719 493.757812 C 361.511719 483.417969 353.148438 475.050781 342.808594 475.050781 Z M 547.769531 356.441406 C 537.445312 356.441406 529.0625 364.808594 529.0625 375.144531 L 529.0625 722.398438 C 529.0625 732.722656 537.429688 741.105469 547.769531 741.105469 C 558.09375 741.105469 566.472656 732.738281 566.472656 722.398438 L 566.472656 375.144531 C 566.472656 364.808594 558.105469 356.441406 547.769531 356.441406 Z M 616.09375 463.339844 C 605.769531 463.339844 597.390625 471.707031 597.390625 482.042969 L 597.390625 615.488281 C 597.390625 625.8125 605.753906 634.191406 616.09375 634.191406 C 626.417969 634.191406 634.796875 625.824219 634.796875 615.488281 L 634.796875 482.042969 C 634.796875 471.707031 626.417969 463.339844 616.09375 463.339844 Z M 684.40625 447.511719 C 674.082031 447.511719 665.699219 455.878906 665.699219 466.21875 L 665.699219 649.382812 C 665.699219 659.703125 674.066406 668.085938 684.40625 668.085938 C 694.726562 668.085938 703.109375 659.71875 703.109375 649.382812 L 703.109375 466.21875 C 703.109375 455.894531 694.742188 447.511719 684.40625 447.511719 Z M 870.929688 398.273438 L 870.929688 392.050781 C 870.929688 213.863281 725.957031 68.902344 547.769531 68.902344 C 369.582031 68.902344 224.621094 213.863281 224.621094 392.050781 L 224.621094 398.273438 C 183.101562 401.070312 150.171875 435.714844 150.171875 477.929688 L 150.171875 589.960938 C 150.171875 633.996094 185.992188 669.816406 230.027344 669.816406 L 243.03125 669.816406 C 253.199219 669.816406 261.449219 661.578125 261.449219 651.394531 L 261.449219 392.0625 C 261.449219 234.183594 389.890625 105.746094 547.769531 105.746094 C 705.648438 105.746094 834.085938 234.183594 834.085938 392.0625 L 834.085938 651.410156 C 834.085938 661.578125 842.324219 669.832031 852.507812 669.832031 L 865.511719 669.832031 C 909.542969 669.832031 945.367188 634.007812 945.367188 589.976562 L 945.367188 477.945312 C 945.367188 435.714844 912.4375 401.070312 870.929688 398.273438 Z M 870.929688 398.273438 " fill-opacity="1" fill-rule="nonzero"/></g><g fill="#ffffff" fill-opacity="1"><g transform="translate(1137.429556, 386.265911)"><g><path d="M 182.65625 0 L 182.65625 -102.171875 C 182.65625 -116.628906 179.46875 -127.53125 173.09375 -134.875 C 166.726562 -142.226562 156.6875 -145.90625 142.96875 -145.90625 C 134.144531 -145.90625 125.628906 -143.945312 117.421875 -140.03125 C 109.210938 -136.113281 101.984375 -130.722656 95.734375 -123.859375 C 89.492188 -116.992188 84.472656 -108.96875 80.671875 -99.78125 C 76.867188 -90.59375 74.96875 -80.734375 74.96875 -70.203125 L 74.96875 0 L 33.078125 0 L 33.078125 -244.78125 L 74.96875 -244.78125 L 74.96875 -127.90625 C 85.257812 -145.539062 97.941406 -158.09375 113.015625 -165.5625 C 128.085938 -173.039062 144.320312 -176.78125 161.71875 -176.78125 C 171.757812 -176.78125 180.757812 -175.0625 188.71875 -171.625 C 196.6875 -168.195312 203.488281 -163.421875 209.125 -157.296875 C 214.757812 -151.171875 219.109375 -143.941406 222.171875 -135.609375 C 225.234375 -127.285156 226.765625 -118.222656 226.765625 -108.421875 L 226.765625 0 Z M 182.65625 0 "/></g></g></g><g fill="#ffffff" fill-opacity="1"><g transform="translate(1350.59576, 386.265911)"><g><path d="M 217.578125 2.9375 C 211.941406 2.9375 206.671875 2.445312 201.765625 1.46875 C 196.867188 0.488281 192.519531 -1.34375 188.71875 -4.03125 C 184.925781 -6.726562 181.988281 -10.28125 179.90625 -14.6875 C 177.820312 -19.101562 177.023438 -24.863281 177.515625 -31.96875 C 167.472656 -20.457031 155.222656 -11.757812 140.765625 -5.875 C 126.304688 0 110.625 2.9375 93.71875 2.9375 C 82.695312 2.9375 72.648438 1.835938 63.578125 -0.359375 C 54.515625 -2.566406 46.734375 -5.875 40.234375 -10.28125 C 33.742188 -14.695312 28.660156 -20.148438 24.984375 -26.640625 C 21.316406 -33.140625 19.484375 -40.550781 19.484375 -48.875 L 19.484375 -50.359375 C 19.484375 -61.378906 23.34375 -70.867188 31.0625 -78.828125 C 38.78125 -86.796875 49.3125 -92.863281 62.65625 -97.03125 C 76.007812 -101.195312 91.632812 -103.15625 109.53125 -102.90625 C 127.414062 -102.90625 146.523438 -100.210938 166.859375 -94.828125 L 166.859375 -106.21875 C 166.859375 -118.707031 162.628906 -128.441406 154.171875 -135.421875 C 145.722656 -142.410156 132.800781 -145.90625 115.40625 -145.90625 C 103.644531 -145.90625 92.617188 -144.003906 82.328125 -140.203125 C 72.035156 -136.410156 61.867188 -131.328125 51.828125 -124.953125 L 33.8125 -149.578125 C 45.570312 -158.160156 58.128906 -164.960938 71.484375 -169.984375 C 84.835938 -175.003906 100.09375 -177.515625 117.25 -177.515625 C 133.414062 -177.515625 147.316406 -175.613281 158.953125 -171.8125 C 170.597656 -168.019531 180.09375 -162.628906 187.4375 -155.640625 C 194.789062 -148.660156 200.179688 -140.207031 203.609375 -130.28125 C 207.035156 -120.363281 208.75 -109.15625 208.75 -96.65625 L 208.75 -41.53125 C 208.75 -35.15625 210.40625 -30.988281 213.71875 -29.03125 C 217.03125 -27.070312 223.707031 -26.09375 233.75 -26.09375 L 233.75 2.9375 Z M 166.859375 -69.828125 C 150.191406 -74.484375 137.507812 -77.054688 128.8125 -77.546875 C 120.113281 -78.035156 113.804688 -78.28125 109.890625 -78.28125 C 102.535156 -78.28125 95.179688 -77.484375 87.828125 -75.890625 C 80.484375 -74.296875 74.484375 -71.296875 69.828125 -66.890625 C 65.171875 -62.484375 62.84375 -57.21875 62.84375 -51.09375 L 62.84375 -49.609375 C 62.84375 -43.484375 66.457031 -38.273438 73.6875 -33.984375 C 80.914062 -29.703125 90.410156 -27.5625 102.171875 -27.5625 C 109.035156 -27.5625 116.328125 -28.539062 124.046875 -30.5 C 131.765625 -32.46875 138.742188 -35.164062 144.984375 -38.59375 C 151.234375 -42.019531 156.441406 -46.179688 160.609375 -51.078125 C 164.773438 -55.984375 166.859375 -61.378906 166.859375 -67.265625 Z M 166.859375 -69.828125 "/></g></g></g><g fill="#ffffff" fill-opacity="1"><g transform="translate(1548.325668, 386.265911)"><g><path d="M 158.40625 -135.625 C 144.6875 -138.070312 132.738281 -138.742188 122.5625 -137.640625 C 112.394531 -136.535156 103.878906 -134.144531 97.015625 -130.46875 C 90.160156 -126.789062 85.078125 -122.070312 81.765625 -116.3125 C 78.460938 -110.5625 76.8125 -104.378906 76.8125 -97.765625 L 76.8125 0 L 33.078125 0 L 33.078125 -172 L 73.140625 -172 L 73.140625 -127.53125 C 77.546875 -137.082031 82.257812 -144.984375 87.28125 -151.234375 C 92.3125 -157.484375 98.132812 -162.320312 104.75 -165.75 C 111.363281 -169.1875 119.019531 -171.453125 127.71875 -172.546875 C 136.414062 -173.648438 146.644531 -173.835938 158.40625 -173.109375 Z M 158.40625 -135.625 "/></g></g></g><g fill="#ffffff" fill-opacity="1"><g transform="translate(1672.91726, 386.265911)"><g><path d="M 300.265625 0 L 300.265625 -102.171875 C 300.265625 -116.378906 298.0625 -127.21875 293.65625 -134.6875 C 289.25 -142.164062 280.675781 -145.90625 267.9375 -145.90625 C 259.351562 -145.90625 251.570312 -143.453125 244.59375 -138.546875 C 237.613281 -133.648438 231.609375 -127.40625 226.578125 -119.8125 C 221.554688 -112.21875 217.632812 -103.765625 214.8125 -94.453125 C 212 -85.140625 210.59375 -76.195312 210.59375 -67.625 L 210.59375 0 L 166.859375 0 L 166.859375 -102.171875 C 166.859375 -116.378906 164.648438 -127.21875 160.234375 -134.6875 C 155.828125 -142.164062 147.132812 -145.90625 134.15625 -145.90625 C 125.820312 -145.90625 118.160156 -143.453125 111.171875 -138.546875 C 104.191406 -133.648438 98.191406 -127.40625 93.171875 -119.8125 C 88.148438 -112.21875 84.226562 -103.765625 81.40625 -94.453125 C 78.59375 -85.140625 77.1875 -76.195312 77.1875 -67.625 L 77.1875 0 L 33.078125 0 L 33.078125 -172 L 73.5 -172 L 73.5 -117.984375 C 79.132812 -129.003906 85.015625 -138.3125 91.140625 -145.90625 C 97.273438 -153.5 103.648438 -159.5625 110.265625 -164.09375 C 116.878906 -168.632812 123.859375 -171.882812 131.203125 -173.84375 C 138.554688 -175.800781 146.15625 -176.78125 154 -176.78125 C 161.34375 -176.78125 168.203125 -175.3125 174.578125 -172.375 C 180.953125 -169.4375 186.523438 -165.453125 191.296875 -160.421875 C 196.078125 -155.398438 200.054688 -149.640625 203.234375 -143.140625 C 206.421875 -136.648438 208.507812 -129.851562 209.5 -122.75 C 219.78125 -141.625 231.289062 -155.347656 244.03125 -163.921875 C 256.78125 -172.492188 271.484375 -176.78125 288.140625 -176.78125 C 297.941406 -176.78125 306.394531 -175.003906 313.5 -171.453125 C 320.601562 -167.898438 326.421875 -163 330.953125 -156.75 C 335.492188 -150.5 338.863281 -143.207031 341.0625 -134.875 C 343.269531 -126.550781 344.375 -117.734375 344.375 -108.421875 L 344.375 0 Z M 300.265625 0 "/></g></g></g><g fill="#ffffff" fill-opacity="1"><g transform="translate(2003.692878, 386.265911)"><g><path d="M 232.640625 -84.53125 C 232.640625 -71.539062 229.695312 -59.65625 223.8125 -48.875 C 217.9375 -38.09375 210.035156 -28.84375 200.109375 -21.125 C 190.191406 -13.414062 178.800781 -7.476562 165.9375 -3.3125 C 153.070312 0.851562 139.660156 2.9375 125.703125 2.9375 C 111.734375 2.9375 98.316406 0.851562 85.453125 -3.3125 C 72.585938 -7.476562 61.191406 -13.414062 51.265625 -21.125 C 41.347656 -28.84375 33.445312 -38.09375 27.5625 -48.875 C 21.6875 -59.65625 18.75 -71.539062 18.75 -84.53125 L 18.75 -90.046875 C 18.75 -103.035156 21.6875 -114.914062 27.5625 -125.6875 C 33.445312 -136.46875 41.347656 -145.71875 51.265625 -153.4375 C 61.191406 -161.15625 72.585938 -167.097656 85.453125 -171.265625 C 98.316406 -175.429688 111.734375 -177.515625 125.703125 -177.515625 C 139.660156 -177.515625 153.070312 -175.429688 165.9375 -171.265625 C 178.800781 -167.097656 190.191406 -161.15625 200.109375 -153.4375 C 210.035156 -145.71875 217.9375 -136.46875 223.8125 -125.6875 C 229.695312 -114.914062 232.640625 -103.035156 232.640625 -90.046875 Z M 188.90625 -88.9375 C 188.90625 -97.03125 187.492188 -104.6875 184.671875 -111.90625 C 181.859375 -119.132812 177.695312 -125.382812 172.1875 -130.65625 C 166.675781 -135.925781 160 -140.09375 152.15625 -143.15625 C 144.3125 -146.21875 135.492188 -147.75 125.703125 -147.75 C 115.648438 -147.75 106.703125 -146.21875 98.859375 -143.15625 C 91.023438 -140.09375 84.410156 -135.925781 79.015625 -130.65625 C 73.628906 -125.382812 69.523438 -119.132812 66.703125 -111.90625 C 63.890625 -104.6875 62.484375 -97.03125 62.484375 -88.9375 L 62.484375 -85.640625 C 62.484375 -77.546875 63.890625 -69.882812 66.703125 -62.65625 C 69.523438 -55.4375 73.628906 -49.191406 79.015625 -43.921875 C 84.410156 -38.648438 91.023438 -34.484375 98.859375 -31.421875 C 106.703125 -28.359375 115.648438 -26.828125 125.703125 -26.828125 C 135.492188 -26.828125 144.3125 -28.359375 152.15625 -31.421875 C 160 -34.484375 166.675781 -38.648438 172.1875 -43.921875 C 177.695312 -49.191406 181.859375 -55.4375 184.671875 -62.65625 C 187.492188 -69.882812 188.90625 -77.546875 188.90625 -85.640625 Z M 188.90625 -88.9375 "/></g></g></g><g fill="#ffffff" fill-opacity="1"><g transform="translate(2211.346095, 386.265911)"><g><path d="M 190.015625 0 L 190.015625 -102.171875 C 190.015625 -116.628906 186.765625 -127.53125 180.265625 -134.875 C 173.773438 -142.226562 163.179688 -145.90625 148.484375 -145.90625 C 140.148438 -145.90625 131.753906 -143.757812 123.296875 -139.46875 C 114.847656 -135.1875 107.191406 -129.492188 100.328125 -122.390625 C 93.472656 -115.285156 87.898438 -106.953125 83.609375 -97.390625 C 79.328125 -87.835938 77.1875 -77.914062 77.1875 -67.625 L 77.1875 0 L 33.078125 0 L 33.078125 -172 L 73.5 -172 L 73.5 -113.5625 C 84.769531 -135.863281 98.367188 -151.972656 114.296875 -161.890625 C 130.222656 -171.816406 147.867188 -176.78125 167.234375 -176.78125 C 177.765625 -176.78125 187.191406 -175.0625 195.515625 -171.625 C 203.847656 -168.195312 210.832031 -163.421875 216.46875 -157.296875 C 222.101562 -151.171875 226.453125 -143.941406 229.515625 -135.609375 C 232.585938 -127.285156 234.125 -118.222656 234.125 -108.421875 L 234.125 0 Z M 190.015625 0 "/></g></g></g><g fill="#ffffff" fill-opacity="1"><g transform="translate(2431.862749, 386.265911)"><g><path d="M 34.1875 -201.78125 L 34.1875 -236.6875 L 76.078125 -236.6875 L 76.078125 -201.78125 Z M 33.078125 0 L 33.078125 -172 L 77.1875 -172 L 77.1875 0 Z M 33.078125 0 "/></g></g></g><g fill="#ffffff" fill-opacity="1"><g transform="translate(2498.384688, 386.265911)"><g><path d="M 77.546875 -31.96875 L 208.015625 -31.96875 L 208.015625 0 L 17.28125 0 L 17.28125 -20.21875 L 149.953125 -140.03125 L 20.21875 -140.03125 L 20.21875 -172 L 210.59375 -172 L 210.59375 -151.796875 Z M 77.546875 -31.96875 "/></g></g></g><g fill="#ffffff" fill-opacity="1"><g transform="translate(2684.721226, 386.265911)"><g><path d="M 158.40625 -135.625 C 144.6875 -138.070312 132.738281 -138.742188 122.5625 -137.640625 C 112.394531 -136.535156 103.878906 -134.144531 97.015625 -130.46875 C 90.160156 -126.789062 85.078125 -122.070312 81.765625 -116.3125 C 78.460938 -110.5625 76.8125 -104.378906 76.8125 -97.765625 L 76.8125 0 L 33.078125 0 L 33.078125 -172 L 73.140625 -172 L 73.140625 -127.53125 C 77.546875 -137.082031 82.257812 -144.984375 87.28125 -151.234375 C 92.3125 -157.484375 98.132812 -162.320312 104.75 -165.75 C 111.363281 -169.1875 119.019531 -171.453125 127.71875 -172.546875 C 136.414062 -173.648438 146.644531 -173.835938 158.40625 -173.109375 Z M 158.40625 -135.625 "/></g></g></g><g fill="#ffffff" fill-opacity="1"><g transform="translate(2809.320097, 386.265911)"><g/></g></g><g transform="matrix(1, 0, 0, 1, 401, 0.000000000000039746)"><g clip-path="url(#287e7d377e)"><g clip-path="url(#32d81bf5a5)"><g transform="matrix(1, 0, 0, 1, 2, 0.000000000000039746)"><g clip-path="url(#a9149feb8a)"><g clip-path="url(#34a3796f99)"><g mask="url(#591ed412b5)"><g transform="matrix(1, 0, 0, 1, 0, 0.000000000000039746)"><g clip-path="url(#d08cf98bcb)"><g clip-path="url(#ed291eba38)"><path fill="url(#98dc0d7464)" d="M 0.101562 0 L 0.101562 810 L 2018.199219 810 L 2018.199219 0 Z M 0.101562 0 " fill-rule="nonzero"/></g></g></g></g></g></g></g></g></g></g></svg>